<svg width="2500" height="2300" viewBox="0 0 100% 100%" fill="none" xmlns="http://www.w3.org/2000/svg">
<path d="M1062.76 1196.09C1079.15 1203.87 1075.06 1229.35 1084.83 1244.64C1094.41 1259.64 1116.61 1266.57 1119.06 1284.21C1121.51 1301.82 1109.82 1319.32 1096.91 1331.55C1085.22 1342.63 1067.75 1342.84 1052.32 1347.44C1039.36 1351.29 1026.91 1358.67 1013.59 1356.34C1000.47 1354.05 992.168 1341.89 980.809 1334.93C966.808 1326.35 946.412 1325.38 939.08 1310.69C931.776 1296.05 938.997 1278.22 944.893 1262.97C950.411 1248.69 959.561 1236.25 971.534 1226.72C983.096 1217.51 997.562 1214.57 1011.57 1209.87C1028.67 1204.13 1046.47 1188.36 1062.76 1196.09Z" fill="#FF2C62"/>
<path d="M1559.47 203.157C1566.32 206.188 1573.41 208.959 1580.41 211.695C1582.87 212.656 1585.32 213.613 1587.74 214.575C1597.16 218.313 1606.34 222.191 1615.03 226.932C1632.28 236.349 1647.51 249.142 1657.95 270.842C1680.47 317.633 1684.26 382.973 1672.48 438.317C1661.42 490.287 1629.72 526.18 1597.38 555.09C1584.46 566.639 1570.21 571.566 1554.9 574.932C1550.2 575.965 1545.29 576.864 1540.25 577.785C1529.28 579.791 1517.74 581.9 1506.7 585.722C1496.93 589.103 1487.41 594.523 1478.28 600.218C1474.98 602.28 1471.76 604.357 1468.58 606.405C1462.79 610.134 1457.15 613.768 1451.42 617.048C1433.72 627.193 1418.17 632.121 1402.95 623.732C1386.53 614.685 1373.9 595.9 1363.69 571.943C1353.54 548.124 1346.16 520.109 1339.67 493.659C1327.78 445.16 1325.1 392.335 1335.34 343.278C1344.83 297.822 1367.7 261.945 1393.84 233.194C1417.21 207.492 1445.08 195.241 1474.33 189.908C1503.05 184.67 1531.08 190.587 1559.47 203.157Z" stroke="#00B7FF" stroke-width="10"/>
<path d="M1266.15 30.4964C1288.07 34.6671 1310.63 36.8593 1333.2 38.813C1336.23 39.076 1339.27 39.3346 1342.31 39.5931C1361.85 41.2571 1381.34 42.9164 1400.44 45.697C1444.57 52.1193 1486.42 64.4975 1521.55 96.5273C1556.88 128.736 1582.48 172.853 1602.17 222.079C1621.86 271.301 1635.6 325.535 1647.24 377.907C1658.18 427.094 1659.53 477.146 1657.96 527.742C1657.28 549.628 1656.05 571.597 1654.82 593.641C1654.63 597.079 1654.44 600.519 1654.25 603.961C1652.84 629.46 1651.55 655.05 1651.2 680.662C1650.76 712.324 1652.5 744.441 1654.23 776.418C1655.38 797.631 1656.52 818.782 1657.03 839.698C1658.3 892.275 1655.56 943.659 1638.89 991.917C1604.81 1090.61 1537.11 1167.93 1463.2 1225.56C1391.11 1281.79 1306.22 1305.01 1221.14 1317.65C1138.75 1329.89 1055.39 1327.11 976.025 1297.92C898.968 1269.58 833.895 1211.54 768.543 1153.24C767.188 1152.04 765.832 1150.83 764.476 1149.62C748.29 1135.18 731.198 1121.42 714.076 1107.63C712.265 1106.17 710.454 1104.71 708.643 1103.25C689.701 1087.98 670.826 1072.57 653.119 1056.06C617.714 1023.03 587.053 985.599 570.038 936.01C553.027 886.431 554.559 833.619 561.041 779.555C563.33 760.469 566.241 741.199 569.162 721.868C574.494 686.573 579.858 651.074 581.517 616.119C583.15 581.703 581.803 546.612 580.464 511.715C579.716 492.223 578.97 472.792 578.748 453.574C578.125 399.836 581.573 347.556 600.281 299.34C638.09 201.894 712.696 131.967 789.704 79.0444C862.967 28.696 947.119 11.9308 1031.12 3.35006C1097.44 -3.42523 1161.97 9.60703 1227.57 22.855C1240.39 25.4426 1253.24 28.0384 1266.15 30.4964Z" stroke="#FF1946" stroke-width="3"/>
<path opacity="0.818242" d="M1042.77 261.253C1058.69 263.93 1079.66 253.763 1090.13 266.047C1100.33 278.009 1083.31 296.797 1086.25 312.239C1089.53 329.481 1109.84 341.816 1107.88 359.259C1105.95 376.457 1092.02 391.905 1076.46 399.469C1061.27 406.848 1043.56 398.929 1026.68 398.721C1012.19 398.542 996.183 406.085 983.94 398.328C971.584 390.499 974.57 370.615 964.941 359.604C954.083 347.188 931.651 346.586 925.358 331.34C919.212 316.448 926.142 298.692 933.993 284.624C941.515 271.146 953.996 260.651 968.19 254.589C981.032 249.105 995.405 251.213 1009.31 252.456C1021 253.5 1031.2 259.308 1042.77 261.253Z" fill="#C4001F"/>
<path d="M1276.56 710.093C1291.81 711.663 1298.04 730.894 1309.9 740.608C1320.53 749.32 1337.28 751.729 1342.75 764.337C1348.23 776.957 1340.12 791.047 1337.65 804.579C1335.43 816.733 1333.64 828.524 1328.96 839.96C1323.32 853.767 1318.78 868.605 1307.48 878.348C1294.81 889.283 1278.26 901.862 1262.05 897.672C1245.21 893.318 1241.54 870.559 1229.34 858.149C1219.97 848.61 1207.24 843.596 1198.76 833.253C1188.54 820.785 1176.2 808.09 1175.12 792.004C1174.01 775.543 1180.87 757.995 1192.92 746.728C1204.59 735.826 1223.39 739.608 1238.02 733.203C1251.98 727.088 1261.4 708.531 1276.56 710.093Z" fill="#00B7FF"/>
<path d="M167.918 312.045C183.222 313.202 199.084 314.511 211.808 323.095C224.453 331.625 230.461 346.368 238.244 359.486C246.538 373.462 258.659 386.422 259.026 402.669C259.399 419.182 250.517 434.68 240.233 447.606C230.454 459.897 215.869 466.298 202.219 474.068C187.926 482.204 174.589 494.956 158.155 494.326C141.692 493.696 128.947 480.515 115.675 470.755C103.051 461.47 89.9051 452.425 82.444 438.645C74.8888 424.691 71.7845 408.511 73.4284 392.728C75.0327 377.327 83.2763 363.896 91.5908 350.833C99.9755 337.66 108.145 323.387 122.066 316.312C135.988 309.238 152.346 310.868 167.918 312.045Z" fill="#0087CB"/>
<path d="M344.865 917.656C361.344 924.916 356.66 952.026 369.985 963.922C383.206 975.726 406.714 971.501 419.209 984.03C431.407 996.263 440.472 1014.75 437.396 1031.52C434.085 1049.57 413.472 1059.33 402.647 1074.34C394.771 1085.27 389.117 1097.17 381.894 1108.51C374.176 1120.63 369.564 1135.09 358.214 1144.11C346.679 1153.29 331.011 1155.03 317.044 1160.08C301.223 1165.79 286.469 1174.98 269.632 1176.12C251.754 1177.34 229.839 1179.19 217.186 1166.85C203.363 1153.37 212.155 1128.93 203.652 1111.78C196.983 1098.34 182.017 1090.87 173.383 1078.53C163.086 1063.8 142.935 1048.99 147.724 1031.81C152.996 1012.89 182.046 1011.39 196.028 997.273C205.751 987.455 208.199 972.891 216.762 962.1C226.108 950.32 234.726 936.448 248.845 930.71C262.948 924.978 279.173 932.641 294.311 930.583C311.716 928.217 328.858 910.603 344.865 917.656Z" fill="#FF8CAA"/>
<path d="M236.687 1052.41C243.469 1055.42 250.467 1058.15 257.452 1060.88C259.923 1061.85 262.393 1062.81 264.852 1063.79C274.292 1067.54 283.614 1071.47 292.464 1076.3C310.117 1085.94 325.871 1099.14 336.652 1121.54C359.53 1169.08 363.291 1235.13 351.414 1290.94C340.158 1343.84 307.897 1380.26 275.381 1409.33C261.908 1421.37 247.085 1426.45 231.546 1429.86C226.63 1430.94 221.594 1431.86 216.498 1432.79C205.64 1434.78 194.51 1436.81 183.683 1440.56C174.248 1443.82 164.963 1449.09 155.872 1454.76C152.649 1456.77 149.464 1458.83 146.3 1460.86C140.463 1464.62 134.701 1468.34 128.915 1471.65C111.085 1481.87 94.2256 1487.57 77.5003 1478.36C60.1727 1468.81 47.2082 1449.24 36.93 1425.12C26.6752 1401.05 19.2439 1372.82 12.7596 1346.37C0.778625 1297.51 -1.9434 1244.23 8.40308 1194.66C18.0308 1148.55 41.2314 1112.2 67.6218 1083.18C91.5221 1056.89 120.041 1044.38 149.788 1038.96C179.296 1033.58 207.949 1039.69 236.687 1052.41Z" stroke="#00B7FF" stroke-width="4"/>
</svg>
